<?xml version="1.0" standalone="no"?>
<!DOCTYPE svg PUBLIC "-//W3C//DTD SVG 20010904//EN"
 "http://www.w3.org/TR/2001/REC-SVG-20010904/DTD/svg10.dtd">
<svg version="1.0" xmlns="http://www.w3.org/2000/svg"
 width="473.000000pt" height="473.000000pt" viewBox="0 0 473.000000 473.000000"
 preserveAspectRatio="xMidYMid meet">

<g transform="translate(0.000000,473.000000) scale(0.100000,-0.100000)"
fill="#000000" stroke="none">
<path d="M2170 4720 c-296 -28 -560 -101 -819 -226 -256 -123 -429 -244 -627
-436 -396 -386 -633 -862 -706 -1418 -16 -123 -15 -439 1 -560 72 -537 300
-1007 666 -1376 603 -608 1461 -841 2291 -625 732 192 1345 750 1609 1465 145
394 183 850 104 1263 -177 928 -910 1676 -1829 1868 -207 44 -501 63 -690 45z
m530 -105 c943 -145 1687 -844 1894 -1780 63 -288 61 -655 -5 -965 -33 -150
-104 -353 -179 -505 -488 -999 -1609 -1493 -2686 -1184 -677 194 -1247 727
-1494 1399 -43 115 -95 321 -116 460 -25 158 -25 481 -1 640 78 508 293 936
647 1290 389 389 872 612 1440 664 90 8 397 -4 500 -19z"/>
<path d="M2683 2808 c-258 -343 -501 -664 -539 -715 -38 -51 -71 -92 -74 -92
-3 -1 -137 101 -299 225 -242 186 -296 224 -306 212 -7 -7 -74 -97 -148 -200
l-136 -188 502 -379 c465 -351 503 -378 518 -362 9 9 284 376 610 816 738 996
744 1005 742 1011 -2 5 -335 252 -377 279 -22 15 -33 2 -493 -607z"/>
</g>
</svg>
